<svg xmlns="http://www.w3.org/2000/svg" xmlns:xlink="http://www.w3.org/1999/xlink" viewBox="0 0 2219.11 883.02"><defs><style>.cls-1{fill:none;}.cls-2{clip-path:url(#clip-path);}.cls-3{fill:#dad7cd;}.cls-4{fill:#a3b18a;}.cls-5{fill:#3a5a40;}.cls-6{fill:#344e41;}</style><clipPath id="clip-path" transform="translate(68.89 -313.79)"><rect class="cls-1" width="1920" height="1080"/></clipPath></defs><g id="Capa_2" data-name="Capa 2"><g id="Capa_1-2" data-name="Capa 1"><g class="cls-2"><path class="cls-3" d="M-12,823.8H1929.67v-316C1559.25,294.89,1296.62,293.56,1122.52,335,827.79,405,669.61,625.35,342.64,612.34,189.28,606.24,66.19,551.49-12,507.75Z" transform="translate(68.89 -313.79)"/><path class="cls-4" d="M-11.66,942H1931.66V594.14c-88.4,54.23-225.92,120.35-395.62,122.78-238.53,3.41-385.52-121.22-545.69-191-193.1-84.12-503.15-131.1-1002,68.21Z" transform="translate(68.89 -313.79)"/><path class="cls-5" d="M-47.24,1130H1967.24V750.26c-449.24-228-744.47-207.56-934.48-141C792,693.66,661.89,872.52,396.13,870.77c-189.56-1.25-343.67-93.7-443.37-170.53Z" transform="translate(68.89 -313.79)"/><path class="cls-6" d="M2150.22,769.21v427.6H-68.89q5.69-141,11.36-282.08C369.69,673.2,661.76,679.27,852,732.83c241.68,68.06,330.23,216,577.51,254.65C1715,1032.09,1974.75,893.8,2150.22,769.21Z" transform="translate(68.89 -313.79)"/></g></g></g></svg>