<svg xmlns="http://www.w3.org/2000/svg" viewBox="0 0 175.07 175.07"><defs><style>.cls-1{fill:#344e41;}.cls-2{fill:#dad7cd;}</style></defs><g id="Capa_2" data-name="Capa 2"><g id="Capa_1-2" data-name="Capa 1"><rect class="cls-1" width="175.07" height="175.07" rx="87.54"/><path class="cls-2" d="M110.06,74.89l-2.88-.76.75-2.88a2.6,2.6,0,0,0-5-1.31l-.75,2.88-2.88-.75a2.61,2.61,0,0,0-3.18,1.86h0A2.61,2.61,0,0,0,98,77.11l2.88.75-.76,2.88a2.6,2.6,0,1,0,5,1.31l.76-2.88,2.88.76a2.6,2.6,0,0,0,3.17-1.87h0A2.59,2.59,0,0,0,110.06,74.89Z"/><path class="cls-2" d="M118.19,60.41l-1.53-1.07,1.07-1.53a1.63,1.63,0,1,0-2.67-1.87L114,57.47l-1.53-1.07a1.62,1.62,0,0,0-2.27.4h0a1.62,1.62,0,0,0,.4,2.27l1.53,1.07-1.07,1.53a1.63,1.63,0,0,0,2.67,1.87L114.79,62l1.52,1.07a1.64,1.64,0,0,0,2.28-.4h0A1.64,1.64,0,0,0,118.19,60.41Z"/><path class="cls-2" d="M114.58,123.31a45.42,45.42,0,0,1-4.45,1.69A41.9,41.9,0,0,1,81.61,46.28c.4-.17.81-.33,1.21-.48a3.09,3.09,0,0,1,3.59,4.73,41.91,41.91,0,0,0,27.4,66.89A3.09,3.09,0,0,1,114.58,123.31Z"/></g></g></svg>