<svg xmlns="http://www.w3.org/2000/svg" viewBox="0 0 62.85 62.84"><defs><style>.cls-1{fill:#344e41;}</style></defs><g id="Capa_2" data-name="Capa 2"><g id="Capa_1-2" data-name="Capa 1"><path class="cls-1" d="M36.9,62.81V41.49H45l1.54-10.06H37c-.06-.11-.11-.15-.11-.19,0-2.5-.09-5,.12-7.49a4.45,4.45,0,0,1,4.4-4.19c1.52-.12,3.05-.07,4.57-.1h.88c0-.25,0-.43,0-.61,0-2.43,0-4.86,0-7.29,0-.51-.13-.72-.66-.75-2.49-.17-5-.49-7.47-.52a14.74,14.74,0,0,0-4.42.65c-4.69,1.42-7.33,4.78-8,9.52A65.27,65.27,0,0,0,26,28c0,1.11,0,2.22,0,3.4h-8.8v10h8.75V62.84H7.05a6.76,6.76,0,0,1-7-7.08V7.1A6.76,6.76,0,0,1,7.1,0H55.76a6.78,6.78,0,0,1,7.09,7.11V55.78a6.76,6.76,0,0,1-7.06,7.06H37.64Z"/></g></g></svg>