<svg xmlns="http://www.w3.org/2000/svg" xmlns:xlink="http://www.w3.org/1999/xlink" viewBox="0 0 2055.47 1370.31"><defs><style>.cls-1{fill:none;}.cls-2{isolation:isolate;}.cls-3{clip-path:url(#clip-path);}.cls-4{fill:#dad7cd;mix-blend-mode:screen;}.cls-5{clip-path:url(#clip-path-2);}.cls-6{fill:#344e41;mix-blend-mode:multiply;}.cls-7{clip-path:url(#clip-path-3);}.cls-8{fill:#606060;mix-blend-mode:overlay;}</style><clipPath id="clip-path" transform="translate(44.88 223.55)"><rect class="cls-1" width="1920" height="1080"/></clipPath><clipPath id="clip-path-2" transform="translate(44.88 223.55)"><path class="cls-1" d="M0,0H1920a0,0,0,0,1,0,0V294.11a0,0,0,0,1,0,0H64.89A64.89,64.89,0,0,1,0,229.22V0A0,0,0,0,1,0,0Z"/></clipPath><clipPath id="clip-path-3" transform="translate(44.88 223.55)"><path class="cls-1" d="M0,0H1920a0,0,0,0,1,0,0V0a63.61,63.61,0,0,1-63.61,63.61H0a0,0,0,0,1,0,0V0A0,0,0,0,1,0,0Z"/></clipPath><image id="image" width="6720" height="4480" xlink:href="../../../../../Games/pexels-alesia-kozik-6004828.jpg"/></defs><g class="cls-2"><g id="Capa_2" data-name="Capa 2"><g id="Capa_1-2" data-name="Capa 1"><g class="cls-3"><use transform="scale(0.31)" xlink:href="#image"/></g><rect class="cls-4" x="44.88" y="223.55" width="1920" height="1080"/><g class="cls-5"><use transform="scale(0.31)" xlink:href="#image"/></g><path class="cls-6" d="M44.88,223.55h1920a0,0,0,0,1,0,0V517.66a0,0,0,0,1,0,0H109.77a64.89,64.89,0,0,1-64.89-64.89V223.55A0,0,0,0,1,44.88,223.55Z"/><g class="cls-7"><use transform="scale(0.31)" xlink:href="#image"/></g><path class="cls-8" d="M44.88,223.55h1920a0,0,0,0,1,0,0v0a63.61,63.61,0,0,1-63.61,63.61H44.88a0,0,0,0,1,0,0V223.55A0,0,0,0,1,44.88,223.55Z"/></g></g></g></svg>