<svg xmlns="http://www.w3.org/2000/svg" viewBox="0 0 62.78 62.78"><defs><style>.cls-1{fill:#344e41;}</style></defs><g id="Capa_2" data-name="Capa 2"><g id="Capa_1-2" data-name="Capa 1"><path class="cls-1" d="M46.77,62.78H16a16,16,0,0,1-16-16V16A16,16,0,0,1,16,0H46.77a16,16,0,0,1,16,16V46.77A16,16,0,0,1,46.77,62.78ZM16,7.56A8.46,8.46,0,0,0,7.56,16V46.77A8.47,8.47,0,0,0,16,55.23H46.77a8.48,8.48,0,0,0,8.46-8.46V16a8.47,8.47,0,0,0-8.46-8.45Z"/><path class="cls-1" d="M31.39,49.26A17.34,17.34,0,1,1,48.73,31.92,17.35,17.35,0,0,1,31.39,49.26Zm0-27.12a9.78,9.78,0,1,0,9.78,9.78A9.79,9.79,0,0,0,31.39,22.14Z"/><circle class="cls-1" cx="48.77" cy="14.44" r="3.82"/></g></g></svg>