<svg xmlns="http://www.w3.org/2000/svg" viewBox="0 0 175.07 175.07"><defs><style>.cls-1{fill:#dad7cd;}.cls-2{fill:#344e41;}</style></defs><g id="Capa_2" data-name="Capa 2"><g id="Capa_1-2" data-name="Capa 1"><path class="cls-1" d="M87.54,0h0a87.53,87.53,0,0,1,87.53,87.54h0a87.53,87.53,0,0,1-87.53,87.53h0A87.53,87.53,0,0,1,0,87.54H0A87.54,87.54,0,0,1,87.54,0Z"/><path class="cls-2" d="M115.91,78.11c-2.31-11-8.77-18.73-19.53-22.13-10.51-3.32-20.18-1.09-28.24,6.5-6.75,6.36-9.86,14.33-8.63,23.64.7,5.35,3.27,10,6.47,14.27a30.32,30.32,0,0,1,5.38,11.39c.27,1.15.62,2.29,1,3.41a7.3,7.3,0,0,0,3.94,4.62,7.64,7.64,0,0,0,3.1.66c2.76,0,5.52,0,8.29,0h8.43a8.21,8.21,0,0,0,2.67-.45,6.85,6.85,0,0,0,4.43-4.91c1.54-5.91,3.43-11.61,7.5-16.36A21,21,0,0,0,113,94.94C115.78,89.65,117.16,84.08,115.91,78.11Zm-8.48,15.65c-1.33,2.24-2.9,4.34-4.4,6.48-2.46,3.52-3.31,7.66-4.48,11.67l0,.12c-.88,3-1,3.09-4.22,3.09H87.79c-2.62,0-5.23,0-7.85,0a2.3,2.3,0,0,1-2.56-1.93.94.94,0,0,0,0-.16c-.53-2-1.18-4-1.73-5.94a28.08,28.08,0,0,0-4.12-8.29,55.78,55.78,0,0,1-5.34-9.17C62.9,82.08,64.73,75,69.63,68.87c6.14-7.7,14.38-10.52,23.9-8.07s15,8.8,17.07,18.29C111.76,84.46,110.1,89.25,107.43,93.76Z"/><path class="cls-2" d="M130.65,82c2.12,0,4.24,0,6.36,0,1.6,0,2.61.88,2.63,2.19s-.95,2.26-2.55,2.26c-4.24,0-8.48,0-12.72,0a2.18,2.18,0,0,1-2.45-2.18c0-1.36.93-2.24,2.52-2.27C126.51,82,128.58,82,130.65,82Z"/><path class="cls-2" d="M64.77,57.07c-.49.61-.88,1.53-1.51,1.75a2.84,2.84,0,0,1-2.4-.31c-3.12-2.93-6.13-6-9.11-9a2.1,2.1,0,0,1,.08-3,2.15,2.15,0,0,1,3.06-.1c3.06,3,6.07,6,9.06,9.08A7,7,0,0,1,64.77,57.07Z"/><path class="cls-2" d="M98.75,122.63v3.08H76.39v-3.08Z"/><path class="cls-2" d="M44.45,86.44c-2,0-4.05,0-6.07,0a2.24,2.24,0,0,1-2.52-2.28A2.28,2.28,0,0,1,38.34,82q6.21,0,12.42,0a2.23,2.23,0,1,1,0,4.45C48.68,86.47,46.57,86.44,44.45,86.44Z"/><path class="cls-2" d="M90,39.9c0,2,0,3.94,0,5.91,0,1.62-.89,2.54-2.26,2.52s-2.21-1-2.22-2.58q0-5.91,0-11.82a2.27,2.27,0,0,1,2.27-2.54c1.32,0,2.18,1,2.2,2.6C90,36,90,37.93,90,39.9Z"/><path class="cls-2" d="M124.87,117.86c-.61.73-1,1.64-1.65,1.87a3,3,0,0,1-2.4-.33,38.28,38.28,0,0,1-3.61-3.49c-1.64-1.63-3.29-3.26-4.91-4.91-1.2-1.22-1.26-2.51-.2-3.5s2.22-.82,3.38.34c2.65,2.65,5.31,5.28,7.93,8A15.84,15.84,0,0,1,124.87,117.86Z"/><path class="cls-2" d="M64.47,108.91a9.82,9.82,0,0,1-1.16,2c-2.67,2.75-5.38,5.48-8.13,8.16a2.23,2.23,0,0,1-3.4.13c-.9-.93-.81-2.25.31-3.38,2.66-2.7,5.3-5.43,8.06-8a3.16,3.16,0,0,1,2.48-.63C63.31,107.29,63.81,108.23,64.47,108.91Z"/><path class="cls-2" d="M124.82,47.83a9.73,9.73,0,0,1-1.08,1.85q-3.81,3.9-7.71,7.72c-1.16,1.14-2.4,1.18-3.38.22s-.94-2.23.19-3.38c2.51-2.56,5-5.15,7.64-7.58A3.38,3.38,0,0,1,123.1,46C123.75,46.16,124.22,47.16,124.82,47.83Z"/><path class="cls-2" d="M68.1,81.47A20.24,20.24,0,0,1,87.81,62.09c1.71,0,2.71.77,2.74,2.18s-1,2.23-2.66,2.31a15.65,15.65,0,0,0-15.23,15c0,.71-.13,1.67-.58,2a3.59,3.59,0,0,1-2.46.74C68.49,84.16,68.05,83.08,68.1,81.47Z"/><path class="cls-2" d="M98.52,131.33c-1,2.83-5.07,4.06-7.71,4.6-4.57.94-10.29.3-13.65-3.26-.83-.89-.77-2-.81-3.15q-.07-2.09-.09-4.17c0-.41,0-2.91,0-5.54,0-3.26,0-6.72.09-6.72l1,0a.94.94,0,0,1,0,.16,2.3,2.3,0,0,0,2.56,1.93c2.62,0,5.23,0,7.85,0H94.3c3.27,0,3.34-.07,4.22-3.09h.23c0,2.66,0,5.33,0,8v2c0,1.72,0,3.44,0,5.16A12.39,12.39,0,0,1,98.52,131.33Z"/></g></g></svg>