<svg xmlns="http://www.w3.org/2000/svg" viewBox="0 0 62.84 63.33"><defs><style>.cls-1{fill:#344e41;fill-rule:evenodd;}</style></defs><g id="Capa_2" data-name="Capa 2"><g id="Capa_1-2" data-name="Capa 1"><path class="cls-1" d="M32,0A30.85,30.85,0,0,0,5.57,46.78L0,63.33l17.08-5.47A30.85,30.85,0,1,0,32,0Zm0,56.53a25.56,25.56,0,0,1-14.13-4.25L8,55.44l3.21-9.53A25.67,25.67,0,1,1,32,56.53ZM46.45,37.86c-.77-.43-4.57-2.48-5.28-2.77s-1.23-.44-1.79.33-2.13,2.49-2.61,3-.94.55-1.71.13a21.69,21.69,0,0,1-6.19-4.15,23.76,23.76,0,0,1-4.17-5.61c-.43-.81,0-1.22.4-1.6s.82-.89,1.24-1.33a5.36,5.36,0,0,0,.83-1.29,1.46,1.46,0,0,0,0-1.38c-.18-.4-1.61-4.33-2.21-5.93s-1.26-1.37-1.72-1.38-1-.11-1.51-.13a2.92,2.92,0,0,0-2.14.91,8.86,8.86,0,0,0-3,6.47c-.14,3.87,2.54,7.72,2.91,8.26s5.12,8.94,13,12.39,7.93,2.4,9.37,2.32,4.73-1.73,5.46-3.54a6.68,6.68,0,0,0,.6-3.73C47.74,38.5,47.23,38.28,46.45,37.86Z"/></g></g></svg>